<svg width="24" height="24" xmlns="http://www.w3.org/2000/svg"><defs><style>.cls-1{fill:#231f20}</style></defs><g id="Card"><path class="cls-1" d="M17 15a3 3 0 1 0-3-3 3 3 0 0 0 3 3 5 5 0 0 0-5 5v1a1 1 0 0 0 1 1h8a1 1 0 0 0 1-1v-1a5 5 0 0 0-5-5zm-1-3a1 1 0 1 1 1 1 1 1 0 0 1-1-1zm-2 8a3 3 0 0 1 6 0zM3 15h8a1 1 0 0 0 1-1v-1a5 5 0 0 0-5-5 3 3 0 1 0-3-3 3 3 0 0 0 3 3 5 5 0 0 0-5 5v1a1 1 0 0 0 1 1zM6 5a1 1 0 1 1 1 1 1 1 0 0 1-1-1zm-2 8a3 3 0 0 1 6 0H4zM21 2h-8a1 1 0 0 0 0 2h7v2a1 1 0 0 0 2 0V3a1 1 0 0 0-1-1zM10 22a1 1 0 0 0 0-2H4v-2a1 1 0 0 0-2 0v3a1 1 0 0 0 1 1z"/></g></svg>